<svg width="1134" height="1134" viewBox="0 0 1134 1134" fill="none" xmlns="http://www.w3.org/2000/svg">
<g id="Group 1">
<path id="circulo" d="M566.93 1133.86C880.037 1133.86 1133.86 880.037 1133.86 566.93C1133.86 253.823 880.037 0 566.93 0C253.823 0 0 253.823 0 566.93C0 880.037 253.823 1133.86 566.93 1133.86Z" fill="url(#paint0_linear_9_2)"/>
<path id="gradient" d="M567.08 1072.16C846.028 1072.16 1072.16 846.028 1072.16 567.08C1072.16 288.132 846.028 62 567.08 62C288.132 62 62 288.132 62 567.08C62 846.028 288.132 1072.16 567.08 1072.16Z" fill="url(#paint1_linear_9_2)"/>
<g id="logo">
<path id="Vector" d="M696.85 470.11L629.7 440.18C588.82 424.13 544.3 407.34 544.3 361.35C544.3 318.29 581.52 292.01 637 292.01C686.63 292.01 723.13 308.8 754.51 336.54L786.63 297.12C751.6 262.09 699.04 238 639.19 238C547.95 238 482.26 292.01 482.26 365.01C482.26 399.89 495.75 425.7 515.09 445.22H368.11V493.14H553.06V661.14C531.93 651.05 512.67 637.42 496.13 621.21L459.63 663.54C485.16 689.07 516.89 709.15 553.06 721.32V742.2C553.06 815.1 524.71 846.82 461.94 846.82C427.52 846.82 392.41 827.92 366.77 788.77L331 823.2C362.05 873.82 414.02 896.77 463.3 896.77C573.32 896.77 610.44 829.27 610.44 746.92V733.28C617.96 733.94 625.6 734.34 633.36 734.34C738.47 734.34 802.7 673.75 802.7 597.85C802.69 527.04 755.97 493.47 696.85 470.11ZM636.27 680.32C627.52 680.32 618.91 679.65 610.43 678.47V499.52L654.52 519.01C702.69 539.45 739.91 554.05 739.91 605.14C739.91 648.93 701.96 680.32 636.27 680.32Z" fill="#171717"/>
</g>
</g>
<defs>
<linearGradient id="paint0_linear_9_2" x1="566.929" y1="1154.47" x2="566.929" y2="25.9597" gradientUnits="userSpaceOnUse">
<stop stop-color="#020203"/>
<stop offset="0.1621" stop-color="#040406"/>
<stop offset="0.3785" stop-color="#0D0F12"/>
<stop offset="0.6255" stop-color="#1E2023"/>
<stop offset="0.8932" stop-color="#373839"/>
<stop offset="1" stop-color="#434342"/>
</linearGradient>
<linearGradient id="paint1_linear_9_2" x1="567.078" y1="137.588" x2="567.078" y2="1019.01" gradientUnits="userSpaceOnUse">
<stop stop-color="#D3DD74"/>
<stop offset="0.6373" stop-color="#AFD291"/>
<stop offset="1" stop-color="#9ECE9B"/>
</linearGradient>
</defs>
</svg>