<svg width="42" height="59" viewBox="0 0 42 59" fill="none" xmlns="http://www.w3.org/2000/svg">
<path d="M32.26 20.47L26.34 17.83C22.74 16.41 18.81 14.93 18.81 10.88C18.81 7.08 22.09 4.77 26.98 4.77C31.36 4.77 34.57 6.25 37.34 8.7L40.17 5.22C37.08 2.13 32.45 0.0100002 27.17 0.0100002C19.13 0.0100002 13.33 4.77 13.33 11.21C13.33 14.29 14.52 16.56 16.22 18.28H3.27V22.51H19.58V37.32C17.72 36.43 16.02 35.23 14.56 33.8L11.34 37.53C13.59 39.78 16.39 41.55 19.58 42.62V44.46C19.58 50.89 17.08 53.68 11.55 53.68C8.51 53.68 5.42 52.01 3.16 48.56L0.0100002 51.6C2.75 56.06 7.33 58.09 11.67 58.09C21.37 58.09 24.64 52.14 24.64 44.88V43.68C25.3 43.74 25.98 43.77 26.66 43.77C35.93 43.77 41.59 38.43 41.59 31.74C41.59 25.5 37.47 22.54 32.26 20.48V20.47ZM26.92 39.01C26.15 39.01 25.39 38.95 24.64 38.85V23.07L28.53 24.79C32.78 26.59 36.06 27.88 36.06 32.38C36.06 36.24 32.71 39.01 26.92 39.01Z" fill="#fff"/>
</svg>
